<svg xmlns="http://www.w3.org/2000/svg" xmlns:xlink="http://www.w3.org/1999/xlink"
	width="500" zoomAndPan="magnify" viewBox="0 0 375 374.999991" height="500"
	preserveAspectRatio="xMidYMid meet" version="1.0"
	id="four-season-svg" data-lang="en">
	<defs>
		<g/>
	</defs>

	<!-- Wrap the original artwork into a reusable group -->
	<g id="artwork">
		<rect x="-37.5" width="450" fill="#ffffff" y="-37.499999" height="449.999989" fill-opacity="1"/>
		<rect x="-37.5" width="450" fill="#545454" y="-37.499999" height="449.999989" fill-opacity="1"/>
		<g fill="#ffd232" fill-opacity="1">
			<g transform="translate(61.903447, 203.624987)">
				<g>
					<path d="M 11.390625 -33.75 C 12.617188 -33.75 13.753906 -33.695312 14.796875 -33.59375 C 15.847656 -33.488281 16.953125 -33.367188 18.109375 -33.234375 C 19.265625 -33.097656 20.609375 -32.976562 22.140625 -32.875 C 23.671875 -32.769531 25.5625 -32.71875 27.8125 -32.71875 C 29.132812 -32.71875 30.171875 -32.835938 30.921875 -33.078125 C 31.671875 -33.316406 32.046875 -33.4375 32.046875 -33.4375 C 32.160156 -33.3125 32.269531 -33.117188 32.375 -32.859375 C 32.476562 -32.609375 32.53125 -32.304688 32.53125 -31.953125 C 32.53125 -30.773438 32.109375 -29.773438 31.265625 -28.953125 C 30.429688 -28.128906 29.039062 -27.71875 27.09375 -27.71875 C 25.625 -27.71875 24.332031 -27.84375 23.21875 -28.09375 C 22.113281 -28.351562 21.078125 -28.675781 20.109375 -29.0625 C 19.148438 -29.457031 18.160156 -29.820312 17.140625 -30.15625 L 15.203125 -19.21875 L 21.109375 -19.21875 C 21.910156 -19.21875 22.550781 -19.242188 23.03125 -19.296875 C 23.519531 -19.359375 23.765625 -19.390625 23.765625 -19.390625 C 23.765625 -19.390625 23.820312 -19.289062 23.9375 -19.09375 C 24.0625 -18.90625 24.125 -18.601562 24.125 -18.1875 C 24.125 -17.613281 23.894531 -17.097656 23.4375 -16.640625 C 22.988281 -16.191406 22.179688 -15.96875 21.015625 -15.96875 C 20.023438 -15.96875 19.023438 -16.035156 18.015625 -16.171875 C 17.015625 -16.304688 15.929688 -16.4375 14.765625 -16.5625 L 12.6875 -4.71875 C 12.414062 -3.164062 12.335938 -2.066406 12.453125 -1.421875 C 12.578125 -0.773438 12.640625 -0.453125 12.640625 -0.453125 C 12.640625 -0.453125 12.441406 -0.375 12.046875 -0.21875 C 11.660156 -0.0703125 11.003906 0 10.078125 0 C 8.429688 0 7.378906 -0.378906 6.921875 -1.140625 C 6.472656 -1.910156 6.398438 -3.164062 6.703125 -4.90625 L 10.9375 -29.0625 C 11.019531 -29.570312 11.078125 -29.992188 11.109375 -30.328125 C 11.140625 -30.660156 11.15625 -30.976562 11.15625 -31.28125 L 10.75 -31.28125 C 8.707031 -31.28125 7.175781 -30.789062 6.15625 -29.8125 C 5.144531 -28.832031 4.640625 -27.703125 4.640625 -26.421875 C 4.640625 -25.785156 4.796875 -25.28125 5.109375 -24.90625 C 5.421875 -24.53125 5.863281 -24.34375 6.4375 -24.34375 C 6.675781 -24.34375 6.863281 -24.363281 7 -24.40625 C 7.132812 -24.457031 7.203125 -24.484375 7.203125 -24.484375 C 7.203125 -24.484375 7.207031 -24.453125 7.21875 -24.390625 C 7.238281 -24.328125 7.25 -24.222656 7.25 -24.078125 C 7.25 -23.535156 6.960938 -22.976562 6.390625 -22.40625 C 5.816406 -21.84375 4.960938 -21.5625 3.828125 -21.5625 C 2.359375 -21.5625 1.203125 -21.972656 0.359375 -22.796875 C -0.484375 -23.617188 -0.90625 -24.707031 -0.90625 -26.0625 C -0.90625 -28.28125 0.0976562 -30.113281 2.109375 -31.5625 C 4.117188 -33.019531 7.210938 -33.75 11.390625 -33.75 Z M 11.390625 -33.75 "/>
				</g>
			</g>
		</g>
		<g fill="#ffd232" fill-opacity="1">
			<g transform="translate(89.931182, 203.624987)">
				<g>
					<path d="M 11.109375 -22.5 C 13.753906 -22.5 15.796875 -21.710938 17.234375 -20.140625 C 18.671875 -18.566406 19.390625 -16.488281 19.390625 -13.90625 C 19.390625 -13.425781 19.367188 -12.945312 19.328125 -12.46875 C 19.285156 -11.988281 19.234375 -11.519531 19.171875 -11.0625 C 20.304688 -11.25 21.28125 -11.625 22.09375 -12.1875 C 22.90625 -12.757812 23.523438 -13.300781 23.953125 -13.8125 C 24.390625 -14.320312 24.609375 -14.578125 24.609375 -14.578125 C 25.242188 -14.578125 25.515625 -14.203125 25.421875 -13.453125 C 25.335938 -12.941406 24.984375 -12.363281 24.359375 -11.71875 C 23.742188 -11.070312 22.945312 -10.492188 21.96875 -9.984375 C 21 -9.472656 19.914062 -9.144531 18.71875 -9 C 17.96875 -6.332031 16.578125 -4.164062 14.546875 -2.5 C 12.523438 -0.832031 9.988281 0 6.9375 0 C 4.5625 0 2.585938 -0.734375 1.015625 -2.203125 C -0.554688 -3.671875 -1.34375 -5.800781 -1.34375 -8.59375 C -1.34375 -11.320312 -0.84375 -13.726562 0.15625 -15.8125 C 1.164062 -17.894531 2.609375 -19.53125 4.484375 -20.71875 C 6.359375 -21.90625 8.566406 -22.5 11.109375 -22.5 Z M 11.296875 -13.765625 C 11.296875 -14.546875 11.488281 -15.210938 11.875 -15.765625 C 12.269531 -16.328125 12.84375 -16.679688 13.59375 -16.828125 C 13.351562 -19.140625 12.378906 -20.296875 10.671875 -20.296875 C 9.554688 -20.296875 8.457031 -19.632812 7.375 -18.3125 C 6.300781 -16.988281 5.445312 -14.648438 4.8125 -11.296875 C 4.695312 -10.722656 4.597656 -9.945312 4.515625 -8.96875 C 4.441406 -8 4.40625 -7.226562 4.40625 -6.65625 C 4.40625 -5.25 4.664062 -4.160156 5.1875 -3.390625 C 5.71875 -2.628906 6.445312 -2.25 7.375 -2.25 C 8.601562 -2.25 9.707031 -2.898438 10.6875 -4.203125 C 11.664062 -5.515625 12.4375 -7.519531 13 -10.21875 C 11.863281 -11.082031 11.296875 -12.265625 11.296875 -13.765625 Z M 11.296875 -13.765625 "/>
				</g>
			</g>
		</g>
		<g fill="#ffd232" fill-opacity="1">
			<g transform="translate(113.81999, 203.624987)">
				<g>
					<path d="M 12.328125 -5.625 C 12.328125 -5.832031 12.328125 -6.0625 12.328125 -6.3125 C 12.328125 -6.570312 12.34375 -6.851562 12.375 -7.15625 C 11.71875 -5.863281 11.039062 -4.753906 10.34375 -3.828125 C 9.414062 -2.535156 8.429688 -1.570312 7.390625 -0.9375 C 6.359375 -0.3125 5.226562 0 4 0 C 2.5 0 1.304688 -0.476562 0.421875 -1.4375 C -0.460938 -2.394531 -0.90625 -3.65625 -0.90625 -5.21875 C -0.90625 -6.0625 -0.863281 -6.898438 -0.78125 -7.734375 C -0.707031 -8.578125 -0.566406 -9.582031 -0.359375 -10.75 L 0.9375 -18.21875 C 1.1875 -19.632812 1.253906 -20.632812 1.140625 -21.21875 C 1.035156 -21.800781 0.984375 -22.09375 0.984375 -22.09375 C 0.984375 -22.09375 1.160156 -22.160156 1.515625 -22.296875 C 1.878906 -22.429688 2.484375 -22.5 3.328125 -22.5 C 5.066406 -22.5 6.125 -22.15625 6.5 -21.46875 C 6.875 -20.78125 6.925781 -19.640625 6.65625 -18.046875 L 4.859375 -7.65625 C 4.648438 -6.363281 4.679688 -5.414062 4.953125 -4.8125 C 5.222656 -4.21875 5.6875 -3.921875 6.34375 -3.921875 C 6.851562 -3.921875 7.390625 -4.195312 7.953125 -4.75 C 8.523438 -5.300781 9.097656 -6.03125 9.671875 -6.9375 C 10.335938 -7.925781 10.96875 -9.078125 11.5625 -10.390625 C 12.164062 -11.710938 12.707031 -13.09375 13.1875 -14.53125 C 13.664062 -15.96875 14.007812 -17.347656 14.21875 -18.671875 C 14.425781 -19.898438 14.476562 -20.773438 14.375 -21.296875 C 14.269531 -21.828125 14.21875 -22.09375 14.21875 -22.09375 C 14.21875 -22.09375 14.394531 -22.160156 14.75 -22.296875 C 15.113281 -22.429688 15.71875 -22.5 16.5625 -22.5 C 18.300781 -22.5 19.359375 -22.15625 19.734375 -21.46875 C 20.109375 -20.78125 20.160156 -19.640625 19.890625 -18.046875 L 18.140625 -7.875 C 17.921875 -6.519531 17.984375 -5.519531 18.328125 -4.875 C 18.679688 -4.238281 19.257812 -3.921875 20.0625 -3.921875 C 20.84375 -3.921875 21.679688 -4.269531 22.578125 -4.96875 C 23.484375 -5.675781 24.222656 -6.628906 24.796875 -7.828125 C 25.097656 -7.828125 25.328125 -7.738281 25.484375 -7.5625 C 25.648438 -7.382812 25.707031 -7.082031 25.65625 -6.65625 C 25.53125 -6.0625 25.25 -5.390625 24.8125 -4.640625 C 24.382812 -3.890625 23.804688 -3.160156 23.078125 -2.453125 C 22.359375 -1.742188 21.535156 -1.15625 20.609375 -0.6875 C 19.679688 -0.226562 18.675781 0 17.59375 0 C 16.03125 0 14.757812 -0.484375 13.78125 -1.453125 C 12.8125 -2.429688 12.328125 -3.820312 12.328125 -5.625 Z M 12.328125 -5.625 "/>
				</g>
			</g>
		</g>
		<g fill="#ffd232" fill-opacity="1">
			<g transform="translate(139.058446, 203.624987)">
				<g>
					<path d="M 6.96875 -18.046875 L 6.609375 -16.0625 C 8.054688 -18.488281 9.484375 -20.164062 10.890625 -21.09375 C 12.296875 -22.03125 13.507812 -22.5 14.53125 -22.5 C 15.644531 -22.5 16.523438 -22.195312 17.171875 -21.59375 C 17.816406 -21 18.140625 -20.128906 18.140625 -18.984375 C 18.140625 -17.722656 17.789062 -16.6875 17.09375 -15.875 C 16.40625 -15.070312 15.507812 -14.671875 14.40625 -14.671875 C 13.832031 -14.671875 13.347656 -14.710938 12.953125 -14.796875 C 12.566406 -14.890625 12.375 -14.9375 12.375 -14.9375 C 12.375 -14.9375 12.46875 -15.160156 12.65625 -15.609375 C 12.851562 -16.066406 12.953125 -16.59375 12.953125 -17.1875 C 12.953125 -17.851562 12.640625 -18.1875 12.015625 -18.1875 C 11.648438 -18.1875 11.210938 -18.003906 10.703125 -17.640625 C 10.191406 -17.273438 9.5625 -16.570312 8.8125 -15.53125 C 8.25 -14.75 7.710938 -13.867188 7.203125 -12.890625 C 6.691406 -11.921875 6.207031 -10.726562 5.75 -9.3125 C 5.300781 -7.90625 4.898438 -6.132812 4.546875 -4 C 4.335938 -2.6875 4.285156 -1.757812 4.390625 -1.21875 C 4.492188 -0.675781 4.546875 -0.40625 4.546875 -0.40625 C 4.546875 -0.40625 4.363281 -0.335938 4 -0.203125 C 3.644531 -0.0664062 3.046875 0 2.203125 0 C 0.460938 0 -0.59375 -0.347656 -0.96875 -1.046875 C -1.34375 -1.753906 -1.394531 -2.890625 -1.125 -4.453125 L 1.265625 -18.21875 C 1.503906 -19.632812 1.570312 -20.632812 1.46875 -21.21875 C 1.363281 -21.800781 1.3125 -22.09375 1.3125 -22.09375 C 1.3125 -22.09375 1.488281 -22.160156 1.84375 -22.296875 C 2.207031 -22.429688 2.804688 -22.5 3.640625 -22.5 C 5.378906 -22.5 6.4375 -22.128906 6.8125 -21.390625 C 7.1875 -20.660156 7.238281 -19.546875 6.96875 -18.046875 Z M 6.96875 -18.046875 "/>
				</g>
			</g>
		</g>
		<g fill="#ffd232" fill-opacity="1">
			<g transform="translate(158.988273, 203.624987)">
				<g/>
			</g>
		</g>
		<g fill="#ffd232" fill-opacity="1">
			<g transform="translate(168.885707, 203.624987)">
				<g>
					<path d="M 15.890625 -31.28125 C 14.054688 -31.28125 12.550781 -30.773438 11.375 -29.765625 C 10.207031 -28.765625 9.625 -27.4375 9.625 -25.78125 C 9.625 -24.851562 9.894531 -23.960938 10.4375 -23.109375 C 10.976562 -22.253906 11.757812 -21.523438 12.78125 -20.921875 L 18.5 -17.59375 C 20.414062 -16.488281 21.769531 -15.265625 22.5625 -13.921875 C 23.363281 -12.585938 23.765625 -11.128906 23.765625 -9.546875 C 23.765625 -7.890625 23.28125 -6.332031 22.3125 -4.875 C 21.351562 -3.425781 19.9375 -2.25 18.0625 -1.34375 C 16.1875 -0.445312 13.882812 0 11.15625 0 C 9.113281 0 7.320312 -0.3125 5.78125 -0.9375 C 4.238281 -1.570312 3.039062 -2.4375 2.1875 -3.53125 C 1.332031 -4.625 0.90625 -5.863281 0.90625 -7.25 C 0.90625 -8.863281 1.289062 -10.046875 2.0625 -10.796875 C 2.84375 -11.546875 3.773438 -11.921875 4.859375 -11.921875 C 5.578125 -11.921875 6.140625 -11.820312 6.546875 -11.625 C 6.953125 -11.4375 7.226562 -11.242188 7.375 -11.046875 C 7.53125 -10.847656 7.609375 -10.75 7.609375 -10.75 C 7.609375 -10.75 7.476562 -10.597656 7.21875 -10.296875 C 6.96875 -10.003906 6.707031 -9.578125 6.4375 -9.015625 C 6.164062 -8.460938 6.03125 -7.796875 6.03125 -7.015625 C 6.03125 -5.671875 6.492188 -4.578125 7.421875 -3.734375 C 8.347656 -2.890625 9.6875 -2.46875 11.4375 -2.46875 C 13.46875 -2.46875 15.066406 -3 16.234375 -4.0625 C 17.410156 -5.132812 18 -6.40625 18 -7.875 C 18 -9.007812 17.679688 -10.007812 17.046875 -10.875 C 16.421875 -11.75 15.359375 -12.609375 13.859375 -13.453125 L 9.046875 -16.203125 C 7.148438 -17.273438 5.8125 -18.460938 5.03125 -19.765625 C 4.257812 -21.078125 3.875 -22.546875 3.875 -24.171875 C 3.875 -25.847656 4.335938 -27.410156 5.265625 -28.859375 C 6.191406 -30.316406 7.546875 -31.492188 9.328125 -32.390625 C 11.117188 -33.296875 13.320312 -33.75 15.9375 -33.75 C 18.0625 -33.75 19.925781 -33.414062 21.53125 -32.75 C 23.132812 -32.09375 24.378906 -31.191406 25.265625 -30.046875 C 26.148438 -28.910156 26.59375 -27.59375 26.59375 -26.09375 C 26.59375 -24.539062 26.203125 -23.320312 25.421875 -22.4375 C 24.640625 -21.550781 23.5625 -21.109375 22.1875 -21.109375 C 21.101562 -21.109375 20.335938 -21.300781 19.890625 -21.6875 C 19.441406 -22.082031 19.21875 -22.28125 19.21875 -22.28125 C 19.21875 -22.28125 19.40625 -22.425781 19.78125 -22.71875 C 20.15625 -23.019531 20.53125 -23.507812 20.90625 -24.1875 C 21.28125 -24.863281 21.46875 -25.738281 21.46875 -26.8125 C 21.46875 -28.070312 21.015625 -29.128906 20.109375 -29.984375 C 19.210938 -30.847656 17.804688 -31.28125 15.890625 -31.28125 Z M 15.890625 -31.28125 "/>
				</g>
			</g>
		</g>
		<g fill="#ffd232" fill-opacity="1">
			<g transform="translate(197.723397, 203.624987)">
				<g>
					<path d="M 8.8125 0 C 6.863281 0 5.117188 -0.390625 3.578125 -1.171875 C 2.035156 -1.953125 0.832031 -3.066406 -0.03125 -4.515625 C -0.90625 -5.972656 -1.34375 -7.707031 -1.34375 -9.71875 C -1.34375 -11.695312 -1 -13.476562 -0.3125 -15.0625 C 0.375 -16.65625 1.296875 -18 2.453125 -19.09375 C 3.609375 -20.195312 4.894531 -21.039062 6.3125 -21.625 C 7.738281 -22.207031 9.203125 -22.5 10.703125 -22.5 C 12.234375 -22.5 13.472656 -22.265625 14.421875 -21.796875 C 15.367188 -21.335938 16.054688 -20.753906 16.484375 -20.046875 C 16.921875 -19.335938 17.140625 -18.59375 17.140625 -17.8125 C 17.140625 -15.78125 16.019531 -14.082031 13.78125 -12.71875 C 11.550781 -11.351562 8.457031 -10.296875 4.5 -9.546875 C 4.644531 -7.859375 5.273438 -6.4375 6.390625 -5.28125 C 7.503906 -4.132812 9.019531 -3.5625 10.9375 -3.5625 C 12.550781 -3.5625 13.9375 -3.785156 15.09375 -4.234375 C 16.25 -4.679688 17.207031 -5.234375 17.96875 -5.890625 C 18.738281 -6.554688 19.316406 -7.203125 19.703125 -7.828125 C 20.367188 -7.828125 20.613281 -7.4375 20.4375 -6.65625 C 20.34375 -6.175781 20.003906 -5.5625 19.421875 -4.8125 C 18.835938 -4.0625 18.046875 -3.316406 17.046875 -2.578125 C 16.054688 -1.847656 14.863281 -1.234375 13.46875 -0.734375 C 12.082031 -0.242188 10.53125 0 8.8125 0 Z M 10.75 -20.25 C 9.914062 -20.25 9.046875 -19.925781 8.140625 -19.28125 C 7.242188 -18.632812 6.460938 -17.671875 5.796875 -16.390625 C 5.140625 -15.117188 4.722656 -13.539062 4.546875 -11.65625 C 7.304688 -12.3125 9.289062 -13.273438 10.5 -14.546875 C 11.71875 -15.828125 12.328125 -17.203125 12.328125 -18.671875 C 12.328125 -19.148438 12.179688 -19.53125 11.890625 -19.8125 C 11.609375 -20.101562 11.226562 -20.25 10.75 -20.25 Z M 10.75 -20.25 "/>
				</g>
			</g>
		</g>
		<g fill="#ffd232" fill-opacity="1">
			<g transform="translate(218.01313, 203.624987)">
				<g>
					<path d="M 19.890625 -18.8125 L 17.953125 -7.875 C 17.710938 -6.519531 17.769531 -5.519531 18.125 -4.875 C 18.488281 -4.238281 19.078125 -3.921875 19.890625 -3.921875 C 20.671875 -3.921875 21.507812 -4.269531 22.40625 -4.96875 C 23.3125 -5.675781 24.046875 -6.628906 24.609375 -7.828125 C 24.910156 -7.828125 25.144531 -7.738281 25.3125 -7.5625 C 25.476562 -7.382812 25.53125 -7.082031 25.46875 -6.65625 C 25.351562 -6.0625 25.078125 -5.390625 24.640625 -4.640625 C 24.203125 -3.890625 23.625 -3.160156 22.90625 -2.453125 C 22.1875 -1.742188 21.359375 -1.15625 20.421875 -0.6875 C 19.492188 -0.226562 18.492188 0 17.421875 0 C 15.941406 0 14.722656 -0.441406 13.765625 -1.328125 C 12.804688 -2.210938 12.269531 -3.460938 12.15625 -5.078125 C 11.21875 -3.429688 10.15625 -2.171875 8.96875 -1.296875 C 7.789062 -0.429688 6.554688 0 5.265625 0 C 3.429688 0 1.867188 -0.628906 0.578125 -1.890625 C -0.703125 -3.148438 -1.34375 -5.097656 -1.34375 -7.734375 C -1.34375 -10.253906 -1.015625 -12.4375 -0.359375 -14.28125 C 0.296875 -16.132812 1.164062 -17.664062 2.25 -18.875 C 3.332031 -20.09375 4.523438 -21 5.828125 -21.59375 C 7.128906 -22.195312 8.441406 -22.5 9.765625 -22.5 C 10.898438 -22.5 11.863281 -22.296875 12.65625 -21.890625 C 13.457031 -21.484375 14.113281 -20.953125 14.625 -20.296875 C 14.988281 -21.109375 15.476562 -21.675781 16.09375 -22 C 16.707031 -22.332031 17.566406 -22.5 18.671875 -22.5 C 19.453125 -22.5 20.019531 -22.421875 20.375 -22.265625 C 20.738281 -22.117188 20.921875 -22.046875 20.921875 -22.046875 C 20.921875 -22.046875 20.804688 -21.8125 20.578125 -21.34375 C 20.359375 -20.882812 20.128906 -20.039062 19.890625 -18.8125 Z M 7.0625 -3.921875 C 7.875 -3.921875 8.625 -4.285156 9.3125 -5.015625 C 10 -5.753906 10.613281 -6.695312 11.15625 -7.84375 C 11.695312 -9 12.171875 -10.226562 12.578125 -11.53125 C 12.984375 -12.84375 13.289062 -14.054688 13.5 -15.171875 L 13.90625 -17.28125 C 13.695312 -17.726562 13.363281 -18.195312 12.90625 -18.6875 C 12.457031 -19.1875 11.800781 -19.4375 10.9375 -19.4375 C 9.914062 -19.4375 8.898438 -18.957031 7.890625 -18 C 6.890625 -17.039062 6.054688 -15.679688 5.390625 -13.921875 C 4.734375 -12.171875 4.40625 -10.082031 4.40625 -7.65625 C 4.40625 -6.394531 4.640625 -5.457031 5.109375 -4.84375 C 5.578125 -4.226562 6.226562 -3.921875 7.0625 -3.921875 Z M 7.0625 -3.921875 "/>
				</g>
			</g>
		</g>
		<g fill="#ffd232" fill-opacity="1">
			<g transform="translate(243.071626, 203.624987)">
				<g>
					<path d="M 7.15625 -14.578125 L 11.03125 -12.5625 C 12.675781 -11.71875 13.828125 -10.816406 14.484375 -9.859375 C 15.148438 -8.898438 15.484375 -7.816406 15.484375 -6.609375 C 15.484375 -5.441406 15.132812 -4.351562 14.4375 -3.34375 C 13.75 -2.34375 12.707031 -1.535156 11.3125 -0.921875 C 9.914062 -0.304688 8.125 0 5.9375 0 C 4.019531 0 2.457031 -0.273438 1.25 -0.828125 C 0.0507812 -1.390625 -0.828125 -2.082031 -1.390625 -2.90625 C -1.960938 -3.726562 -2.25 -4.53125 -2.25 -5.3125 C -2.25 -6.175781 -1.945312 -6.84375 -1.34375 -7.3125 C -0.75 -7.78125 -0.0625 -8.015625 0.71875 -8.015625 C 1.5 -8.015625 2.050781 -7.90625 2.375 -7.6875 C 2.707031 -7.476562 2.875 -7.375 2.875 -7.375 C 2.875 -7.375 2.835938 -7.257812 2.765625 -7.03125 C 2.691406 -6.8125 2.65625 -6.492188 2.65625 -6.078125 C 2.65625 -4.960938 2.953125 -4.050781 3.546875 -3.34375 C 4.148438 -2.644531 5.097656 -2.28125 6.390625 -2.25 C 7.679688 -2.25 8.632812 -2.53125 9.25 -3.09375 C 9.863281 -3.664062 10.171875 -4.328125 10.171875 -5.078125 C 10.171875 -5.617188 10.003906 -6.125 9.671875 -6.59375 C 9.347656 -7.0625 8.78125 -7.503906 7.96875 -7.921875 L 3.5625 -10.265625 C 2.476562 -10.859375 1.550781 -11.566406 0.78125 -12.390625 C 0.0195312 -13.222656 -0.359375 -14.390625 -0.359375 -15.890625 C -0.359375 -17.710938 0.429688 -19.269531 2.015625 -20.5625 C 3.609375 -21.851562 6 -22.5 9.1875 -22.5 C 11.039062 -22.5 12.570312 -22.21875 13.78125 -21.65625 C 15 -21.101562 15.898438 -20.414062 16.484375 -19.59375 C 17.078125 -18.769531 17.375 -17.96875 17.375 -17.1875 C 17.375 -16.351562 17.070312 -15.691406 16.46875 -15.203125 C 15.863281 -14.722656 15.175781 -14.484375 14.40625 -14.484375 C 13.65625 -14.484375 13.101562 -14.585938 12.75 -14.796875 C 12.40625 -15.015625 12.234375 -15.125 12.234375 -15.125 C 12.234375 -15.125 12.269531 -15.242188 12.34375 -15.484375 C 12.425781 -15.722656 12.46875 -16.035156 12.46875 -16.421875 C 12.46875 -17.472656 12.144531 -18.375 11.5 -19.125 C 10.851562 -19.875 9.898438 -20.25 8.640625 -20.25 C 7.410156 -20.25 6.488281 -19.96875 5.875 -19.40625 C 5.257812 -18.851562 4.953125 -18.191406 4.953125 -17.421875 C 4.953125 -16.753906 5.128906 -16.210938 5.484375 -15.796875 C 5.847656 -15.378906 6.40625 -14.972656 7.15625 -14.578125 Z M 7.15625 -14.578125 "/>
				</g>
			</g>
		</g>
		<g fill="#ffd232" fill-opacity="1">
			<g transform="translate(263.586304, 203.624987)">
				<g>
					<path d="M 11.109375 -22.5 C 13.753906 -22.5 15.796875 -21.710938 17.234375 -20.140625 C 18.671875 -18.566406 19.390625 -16.488281 19.390625 -13.90625 C 19.390625 -13.425781 19.367188 -12.945312 19.328125 -12.46875 C 19.285156 -11.988281 19.234375 -11.519531 19.171875 -11.0625 C 20.304688 -11.25 21.28125 -11.625 22.09375 -12.1875 C 22.90625 -12.757812 23.523438 -13.300781 23.953125 -13.8125 C 24.390625 -14.320312 24.609375 -14.578125 24.609375 -14.578125 C 25.242188 -14.578125 25.515625 -14.203125 25.421875 -13.453125 C 25.335938 -12.941406 24.984375 -12.363281 24.359375 -11.71875 C 23.742188 -11.070312 22.945312 -10.492188 21.96875 -9.984375 C 21 -9.472656 19.914062 -9.144531 18.71875 -9 C 17.96875 -6.332031 16.578125 -4.164062 14.546875 -2.5 C 12.523438 -0.832031 9.988281 0 6.9375 0 C 4.5625 0 2.585938 -0.734375 1.015625 -2.203125 C -0.554688 -3.671875 -1.34375 -5.800781 -1.34375 -8.59375 C -1.34375 -11.320312 -0.84375 -13.726562 0.15625 -15.8125 C 1.164062 -17.894531 2.609375 -19.53125 4.484375 -20.71875 C 6.359375 -21.90625 8.566406 -22.5 11.109375 -22.5 Z M 11.296875 -13.765625 C 11.296875 -14.546875 11.488281 -15.210938 11.875 -15.765625 C 12.269531 -16.328125 12.84375 -16.679688 13.59375 -16.828125 C 13.351562 -19.140625 12.378906 -20.296875 10.671875 -20.296875 C 9.554688 -20.296875 8.457031 -19.632812 7.375 -18.3125 C 6.300781 -16.988281 5.445312 -14.648438 4.8125 -11.296875 C 4.695312 -10.722656 4.597656 -9.945312 4.515625 -8.96875 C 4.441406 -8 4.40625 -7.226562 4.40625 -6.65625 C 4.40625 -5.25 4.664062 -4.160156 5.1875 -3.390625 C 5.71875 -2.628906 6.445312 -2.25 7.375 -2.25 C 8.601562 -2.25 9.707031 -2.898438 10.6875 -4.203125 C 11.664062 -5.515625 12.4375 -7.519531 13 -10.21875 C 11.863281 -11.082031 11.296875 -12.265625 11.296875 -13.765625 Z M 11.296875 -13.765625 "/>
				</g>
			</g>
		</g>
		<g fill="#ffd232" fill-opacity="1">
			<g transform="translate(287.475112, 203.624987)">
				<g>
					<path d="M 13.3125 -10.75 L 14.171875 -15.703125 C 14.347656 -16.785156 14.335938 -17.53125 14.140625 -17.9375 C 13.953125 -18.34375 13.601562 -18.546875 13.09375 -18.546875 C 12.375 -18.546875 11.601562 -18.160156 10.78125 -17.390625 C 9.957031 -16.628906 9.128906 -15.578125 8.296875 -14.234375 C 7.472656 -12.898438 6.738281 -11.378906 6.09375 -9.671875 C 5.445312 -7.960938 4.945312 -6.164062 4.59375 -4.28125 C 4.351562 -2.863281 4.285156 -1.863281 4.390625 -1.28125 C 4.492188 -0.695312 4.546875 -0.40625 4.546875 -0.40625 C 4.546875 -0.40625 4.363281 -0.335938 4 -0.203125 C 3.644531 -0.0664062 3.046875 0 2.203125 0 C 0.460938 0 -0.59375 -0.347656 -0.96875 -1.046875 C -1.34375 -1.753906 -1.394531 -2.890625 -1.125 -4.453125 L 1.265625 -18.21875 C 1.503906 -19.632812 1.570312 -20.632812 1.46875 -21.21875 C 1.363281 -21.800781 1.3125 -22.09375 1.3125 -22.09375 C 1.3125 -22.09375 1.488281 -22.160156 1.84375 -22.296875 C 2.207031 -22.429688 2.804688 -22.5 3.640625 -22.5 C 5.378906 -22.5 6.4375 -22.15625 6.8125 -21.46875 C 7.1875 -20.78125 7.238281 -19.640625 6.96875 -18.046875 L 6.609375 -15.96875 C 7.210938 -16.957031 7.972656 -17.953125 8.890625 -18.953125 C 9.804688 -19.960938 10.828125 -20.804688 11.953125 -21.484375 C 13.078125 -22.160156 14.238281 -22.5 15.4375 -22.5 C 16.84375 -22.5 17.960938 -22.078125 18.796875 -21.234375 C 19.640625 -20.398438 20.0625 -19.273438 20.0625 -17.859375 C 20.0625 -17.378906 20.023438 -16.820312 19.953125 -16.1875 C 19.878906 -15.5625 19.785156 -14.90625 19.671875 -14.21875 L 18.578125 -7.875 C 18.367188 -6.757812 18.390625 -5.820312 18.640625 -5.0625 C 18.898438 -4.300781 19.5 -3.921875 20.4375 -3.921875 C 21.394531 -3.921875 22.273438 -4.28125 23.078125 -5 C 23.890625 -5.71875 24.582031 -6.660156 25.15625 -7.828125 C 25.457031 -7.828125 25.6875 -7.738281 25.84375 -7.5625 C 26.007812 -7.382812 26.066406 -7.082031 26.015625 -6.65625 C 25.921875 -6.09375 25.65625 -5.4375 25.21875 -4.6875 C 24.78125 -3.9375 24.203125 -3.195312 23.484375 -2.46875 C 22.765625 -1.75 21.945312 -1.15625 21.03125 -0.6875 C 20.125 -0.226562 19.144531 0 18.09375 0 C 16.40625 0 15.070312 -0.515625 14.09375 -1.546875 C 13.125 -2.585938 12.640625 -3.945312 12.640625 -5.625 C 12.640625 -6.226562 12.722656 -7.046875 12.890625 -8.078125 C 13.054688 -9.109375 13.195312 -10 13.3125 -10.75 Z M 13.3125 -10.75 "/>
				</g>
			</g>
		</g>
	</g>

	<!-- Language groups: each group re-uses the artwork and adds language-specific overlays.
	     Only the group matching svg[data-lang] will be displayed. -->
	<g class="lang" data-lang="en" style="display:inline">
		<use xlink:href="#artwork"/>
		<!-- Example overlay text for English -->
		<text x="20" y="40" fill="#ffffff" font-size="18" font-family="Arial, sans-serif" id="label-en">
			Four Season - English
		</text>
	</g>

	<g class="lang" data-lang="ta" style="display:none">
		<use xlink:href="#artwork"/>
		<!-- Example overlay text for Tamil -->
		<text x="20" y="40" fill="#ffffff" font-size="18" font-family="Arial, sans-serif" id="label-ta">
			நான்கு பருவம் - தமிழ்
		</text>
	</g>

	<g class="lang" data-lang="hi" style="display:none">
		<use xlink:href="#artwork"/>
		<!-- Example overlay text for Hindi -->
		<text x="20" y="40" fill="#ffffff" font-size="18" font-family="Arial, sans-serif" id="label-hi">
			चार मौसम - हिंदी
		</text>
	</g>

    <g class="lang" data-lang="ar" style="display:none">
        <use xlink:href="#artwork"/>
        <text x="20" y="40" fill="#ffffff" font-size="18" font-family="Arial, sans-serif" id="label-ar">
            الموسم الأربعة - العربية
        </text>
    </g>

    <g class="lang" data-lang="ja" style="display:none">
        <use xlink:href="#artwork"/>
        <text x="20" y="40" fill="#ffffff" font-size="18" font-family="Arial, sans-serif" id="label-ja">
            四季 - 日本語
        </text>
    </g>

    <g class="lang" data-lang="ko" style="display:none">
        <use xlink:href="#artwork"/>
        <text x="20" y="40" fill="#ffffff" font-size="18" font-family="Arial, sans-serif" id="label-ko">
            사계절 - 한국어
        </text>
    </g>

    <g class="lang" data-lang="fr" style="display:none">
        <use xlink:href="#artwork"/>
        <text x="20" y="40" fill="#ffffff" font-size="18" font-family="Arial, sans-serif" id="label-fr">
            Quatre Saisons - Français
        </text>
    </g>

    <g class="lang" data-lang="de" style="display:none">
        <use xlink:href="#artwork"/>
        <text x="20" y="40" fill="#ffffff" font-size="18" font-family="Arial, sans-serif" id="label-de">
            Vier Jahreszeiten - Deutsch
        </text>
    </g>

	<!-- Add more <g class="lang" data-lang="xx">...</g> blocks for other languages as needed -->

	<!-- Script to toggle language groups when the svg root's data-lang attribute changes -->
	<script type="application/ecmascript"><![CDATA[
		(function () {
			var svg = document.documentElement;
			function updateLanguage() {
				var lang = svg.getAttribute('data-lang') || 'en';
				var groups = svg.querySelectorAll('.lang');
				for (var i = 0; i < groups.length; i++) {
					var g = groups[i];
					g.style.display = (g.getAttribute('data-lang') === lang) ? 'inline' : 'none';
				}
			}
			// Observe changes to the root svg attributes (so changing data-lang will update immediately)
			var observer = new MutationObserver(function (mutations) {
				for (var i = 0; i < mutations.length; i++) {
					if (mutations[i].attributeName === 'data-lang') {
						updateLanguage();
					}
				}
			});
			observer.observe(svg, { attributes: true });
			// initialize
			updateLanguage();
		})();
	]]></script>

</svg>